<svg viewBox="0 0 48 45.9429" xmlns="http://www.w3.org/2000/svg" xmlns:xlink="http://www.w3.org/1999/xlink" width="48.000015" height="45.942871" fill="none" customFrame="#000000">
	<g id="Group 5">
		<path id="Vector" d="M42.4416 13.778L29.9034 12.6152L24.9228 1.04987C24.574 0.240051 23.4259 0.240051 23.0772 1.04987L18.0967 12.6151L5.55842 13.778C4.68045 13.8594 4.3257 14.9514 4.98804 15.5333L14.4482 23.8439L11.6796 36.1279C11.4858 36.988 12.4147 37.6629 13.1728 37.2128L24 30.7838L34.8272 37.2128C35.5854 37.663 36.5142 36.988 36.3204 36.1279L33.5517 23.8439L43.012 15.5333C43.6743 14.9514 43.3195 13.8594 42.4416 13.778Z" fill="rgb(255,220,100)" fill-rule="nonzero" />
		<g id="Group">
			<path id="Vector" d="M11.1823 0.651717C11.8215 1.53953 13.6256 5.35235 14.6571 7.57442C14.8193 7.92373 14.381 8.23929 14.1011 7.97463C12.3211 6.29163 9.27752 3.37113 8.63833 2.48322C8.13255 1.78075 8.29202 0.801249 8.99458 0.295467C9.69705 -0.210315 10.6765 -0.0507523 11.1823 0.651717Z" fill="rgb(255,240,130)" fill-rule="nonzero" />
			<path id="Vector" d="M36.8177 0.651717C36.1785 1.53953 34.3744 5.35235 33.3429 7.57442C33.1807 7.92373 33.619 8.23929 33.8989 7.97463C35.6789 6.29163 38.7224 3.37103 39.3617 2.48322C39.8675 1.78075 39.708 0.801249 39.0054 0.295467C38.303 -0.210315 37.3235 -0.0507523 36.8177 0.651717Z" fill="rgb(255,240,130)" fill-rule="nonzero" />
			<path id="Vector" d="M46.9182 26.6867C45.8782 26.3475 41.6974 25.7871 39.2671 25.4796C38.8851 25.4313 38.7176 25.9447 39.0547 26.1309C41.199 27.3155 44.9062 29.3277 45.9462 29.6669C46.7692 29.9353 47.6539 29.4858 47.9223 28.6627C48.1907 27.8397 47.7412 26.9551 46.9182 26.6867Z" fill="rgb(255,240,130)" fill-rule="nonzero" />
			<path id="Vector" d="M1.08174 26.6867C2.1218 26.3475 6.30259 25.7871 8.73288 25.4796C9.11491 25.4313 9.28235 25.9447 8.94532 26.1309C6.80097 27.3155 3.09381 29.3277 2.05374 29.6669C1.2308 29.9353 0.346083 29.4858 0.0776763 28.6627C-0.19073 27.8397 0.258802 26.9551 1.08174 26.6867Z" fill="rgb(255,240,130)" fill-rule="nonzero" />
			<path id="Vector" d="M22.4807 44.3756C22.4807 43.2816 23.2442 39.1332 23.7055 36.7272C23.778 36.3491 24.3181 36.3491 24.3905 36.7272C24.8518 39.1332 25.6154 43.2816 25.6154 44.3756C25.6154 45.2412 24.9137 45.9429 24.0481 45.9429C23.1824 45.943 22.4807 45.2412 22.4807 44.3756Z" fill="rgb(255,240,130)" fill-rule="nonzero" />
		</g>
		<path id="Vector" d="M26.7339 5.2555L24.9227 1.04987C24.5739 0.240051 23.4258 0.240051 23.0771 1.04987L18.0966 12.6151L5.55842 13.778C4.68045 13.8594 4.3257 14.9514 4.98804 15.5333L14.4482 23.8439L11.6796 36.1279C11.4858 36.988 12.4147 37.6629 13.1728 37.2128L14.6138 36.3571C16.9762 21.0646 23.6177 9.83875 26.7339 5.2555Z" fill="rgb(255,200,80)" fill-rule="nonzero" />
	</g>
</svg>
